<?xml version="1.0" encoding="UTF-8"?>
<svg id="graphics" xmlns="http://www.w3.org/2000/svg" xmlns:xlink="http://www.w3.org/1999/xlink" viewBox="0 0 32 32">
  <defs>
    <style>
      .cls-1 {
        fill: url(#linear-gradient);
      }

      .cls-2 {
        fill: #97e649;
      }

      .cls-3 {
        fill: #29b6f2;
      }

      .cls-4 {
        fill: url(#linear-gradient-3);
      }

      .cls-5 {
        fill: url(#linear-gradient-4);
      }

      .cls-6 {
        fill: url(#linear-gradient-2);
      }
    </style>
    <linearGradient id="linear-gradient" x1="33.2" y1="22.12" x2="15.47" y2="22.12" gradientUnits="userSpaceOnUse">
      <stop offset=".12" stop-color="#06427a"/>
      <stop offset=".6" stop-color="#2070d6"/>
      <stop offset=".94" stop-color="#17abf7"/>
    </linearGradient>
    <linearGradient id="linear-gradient-2" x1="16.75" y1="-852.77" x2="22.14" y2="-852.77" gradientTransform="translate(0 -842.53) scale(1 -1)" gradientUnits="userSpaceOnUse">
      <stop offset=".12" stop-color="#064a7a"/>
      <stop offset=".99" stop-color="#2085d6"/>
    </linearGradient>
    <linearGradient id="linear-gradient-3" x1="-1.2" y1="9.88" x2="14.95" y2="9.88" gradientUnits="userSpaceOnUse">
      <stop offset="0" stop-color="#195d1b"/>
      <stop offset=".72" stop-color="#39b54a"/>
      <stop offset="1" stop-color="#54db4a"/>
    </linearGradient>
    <linearGradient id="linear-gradient-4" x1="9.57" y1="18.17" x2="19.76" y2="26.36" gradientUnits="userSpaceOnUse">
      <stop offset="0" stop-color="#195d1b"/>
      <stop offset=".72" stop-color="#39b54a"/>
    </linearGradient>
  </defs>
  <g>
    <path class="cls-1" d="M30.67,15.63l-7.23,7.62c-1.53,1.62-4.02,1.62-5.55,0-.68-.72-1.07-1.63-1.15-2.56v6.9c0,.95,.11,2.16,1.15,3.21,1.54,1.57,4.02,1.62,5.55,0l5.8-6.12c1.52-1.61,1.6-1.67,1.87-2.05,.55-.79,.84-1.71,.88-2.64,0-.24,0-1.31,0-7.77,0,1.35-.56,2.58-1.33,3.39Z"/>
    <path class="cls-3" d="M21.69,11.09c.6,.63,.6,1.66,0,2.29l-3.8,4.01c-1.53,1.62-1.53,4.24,0,5.86,1.53,1.62,4.02,1.62,5.55,0l7.23-7.62c1.78-1.87,1.78-4.91,0-6.79L23.44,1.21c-1.53-1.62-4.02-1.62-5.55,0-1.53,1.62-1.53,4.24,0,5.86l3.8,4.01Z"/>
    <path class="cls-6" d="M21.69,13.38l-2.49,2.63-1.31-1.38c-.65-.88-1.14-1.52-1.14-4.39,0-1.14-.01-4.45,0-5.76,0,.39,.22,1.62,1.14,2.59l3.8,4.01c.6,.63,.6,1.66,0,2.29Z"/>
  </g>
  <g>
    <path class="cls-4" d="M1.33,16.37l7.23-7.62c1.53-1.62,4.02-1.62,5.55,0,.68,.72,1.07,1.63,1.15,2.56V4.41c0-.95-.11-2.16-1.15-3.21-1.54-1.57-4.02-1.62-5.55,0L2.76,7.31c-1.52,1.61-1.6,1.67-1.87,2.05C.34,10.15,.05,11.07,0,12c0,.24,0,1.31,0,7.77C0,18.41,.56,17.19,1.33,16.37Z"/>
    <path class="cls-2" d="M10.31,20.91c-.6-.63-.6-1.66,0-2.29l3.8-4.01c1.53-1.62,1.53-4.24,0-5.86-1.53-1.62-4.02-1.62-5.55,0L1.33,16.37c-1.78,1.87-1.78,4.91,0,6.79l7.23,7.63c1.53,1.62,4.02,1.62,5.55,0,1.53-1.62,1.53-4.24,0-5.86l-3.8-4.01Z"/>
    <path class="cls-5" d="M10.31,18.62l2.49-2.63,1.31,1.38c.65,.88,1.14,1.52,1.14,4.39,0,1.14,.01,4.45,0,5.76,0-.39-.22-1.62-1.14-2.59l-3.8-4.01c-.6-.63-.6-1.66,0-2.29Z"/>
  </g>
</svg>